<?xml version="1.0" standalone="no"?>
<!DOCTYPE svg PUBLIC "-//W3C//DTD SVG 20010904//EN"
 "http://www.w3.org/TR/2001/REC-SVG-20010904/DTD/svg10.dtd">
<svg version="1.0" xmlns="http://www.w3.org/2000/svg"
 width="100.000000pt" height="100.000000pt" viewBox="0 0 100.000000 100.000000"
 preserveAspectRatio="xMidYMid meet">
<metadata>
Created by potrace 1.11, written by Peter Selinger 2001-2013
</metadata>
<g transform="translate(0.000000,100.000000) scale(0.100000,-0.100000)"
fill="#000000" stroke="none">
<path d="M375 736 c-227 -107 -197 -406 47 -470 221 -57 414 157 315 350 -48
94 -133 144 -245 144 -49 0 -80 -6 -117 -24z m230 -20 c87 -40 135 -115 135
-208 -1 -177 -196 -286 -365 -204 -164 81 -179 298 -28 394 63 39 67 40 143
41 48 1 78 -5 115 -23z"/>
<path d="M338 562 c-21 -4 -21 -6 -10 -30 5 -9 15 -30 23 -47 26 -53 96 -47
124 11 19 40 20 39 43 -8 18 -34 44 -45 87 -34 15 4 28 20 40 51 9 26 14 49
10 53 -7 7 -288 11 -317 4z m116 -15 c43 -32 -27 -109 -72 -81 -9 6 -21 23
-27 39 -8 22 -6 29 10 41 24 18 66 18 89 1z m160 7 c20 -8 21 -67 2 -83 -26
-21 -68 -9 -88 25 -17 29 -17 33 -3 48 17 16 60 21 89 10z"/>
</g>
</svg>
